<?xml version="1.0" encoding="utf-8"?><!DOCTYPE svg PUBLIC "-//W3C//DTD SVG 1.1//EN" "http://www.w3.org/Graphics/SVG/1.1/DTD/svg11.dtd">
<svg version="1.1" id="Contours" xmlns="http://www.w3.org/2000/svg" xmlns:xlink="http://www.w3.org/1999/xlink" x="0px" y="0px" width="1147.773682px" height="1147.773682px" viewBox="-0.000000 -0.000000 1147.773682 1483.584351" enable-background="new 0 0 1147.773682 1147.773682" xml:space="preserve" stroke="black" fill="none" stroke-linecap='round' stroke-linejoin='round'>
  <path
    class="selected"
    fill="#000000"
    opacity="1.000000"
    stroke="none"
    d="M1147.773663 0.509101 C765.273663 1.009101 382.773663 1.009101 0.023663 1.009101 C-0.059670 0.675767 0.089583 0.065299 0.276457 0.053556 C1.604546 -0.029895 2.940330 0.009101 4.273663 0.009101 C385.440320 0.009101 766.606976 0.009101 1147.773663 0.509101 z"
  />
  <path
    class="selected"
    fill="#000000"
    opacity="1.000000"
    stroke="none"
    d="M671.523663 155.759101 C686.702680 150.913397 701.501264 145.816626 716.602826 141.883429 C728.298200 138.837378 740.404462 137.401816 752.271100 134.972205 C769.402081 131.464743 786.733807 130.529761 804.117047 131.089484 C825.311261 131.771948 846.153668 135.132544 866.720075 140.399863 C892.907514 147.106757 917.706891 157.233924 941.445905 170.033484 C956.523419 178.163001 971.185284 187.005515 984.301556 198.107413 C995.220075 207.348990 1006.483930 216.307059 1016.487103 226.479926 C1037.825055 248.179892 1056.700055 271.789801 1072.010480 298.365271 C1082.656964 316.845038 1091.742658 335.888587 1098.057721 356.088812 C1102.702863 370.947364 1105.649274 386.380622 1108.643536 401.696387 C1110.660016 412.010108 1111.502789 422.558417 1112.690411 433.022223 C1112.830670 434.257056 1111.829205 435.621436 1111.357037 436.925788 C1110.829205 435.700019 1110.052472 434.521186 1109.811261 433.241370 C1106.432965 415.325476 1100.063947 398.408393 1092.774518 381.792090 C1083.895978 361.553290 1073.250836 342.264502 1060.681867 324.113806 C1054.504010 315.192511 1047.622296 306.716193 1040.571271 298.454840 C1034.474469 291.311591 1028.295026 284.014563 1021.070966 278.107855 C1008.803082 268.077216 996.150739 258.352851 982.790326 249.869269 C969.896527 241.682044 956.135053 234.743247 942.337811 228.125250 C922.974774 218.837592 902.926862 211.112677 881.992535 206.077765 C869.354047 203.038047 856.633588 200.153250 843.800153 198.165991 C832.497662 196.415808 820.995648 195.336646 809.566205 195.192954 C797.462689 195.040793 785.331830 196.211753 773.229108 197.040427 C756.052167 198.216544 739.545270 202.774878 723.317914 208.107627 C703.098126 214.752371 683.229413 222.330725 664.506818 232.695960 C645.096784 243.441825 626.646100 255.553473 609.081952 269.110358 C593.846845 280.869544 581.312421 295.159125 569.301434 309.996894 C559.713483 321.841315 549.767499 333.430152 540.786664 345.721625 C532.857953 356.573187 525.607221 367.985572 518.852582 379.612433 C511.165387 392.844458 503.797711 406.325049 497.301984 420.171759 C487.202710 441.700049 478.360730 463.773383 472.766950 486.999884 C468.133130 506.240576 463.110761 525.395514 458.911633 544.729865 C456.788495 554.505622 455.895703 564.571784 454.824170 574.547187 C453.292523 588.806342 452.061261 603.098578 450.790784 617.384650 C450.030560 625.933173 449.492871 634.501410 448.739240 643.050543 C448.533978 645.378729 449.061108 646.124640 451.612012 646.083991 C462.608777 645.908759 473.638501 646.510565 484.602460 645.885749 C499.244641 645.051215 513.983868 644.224005 528.419171 641.819159 C555.580487 637.294257 582.096356 629.977423 607.658307 619.583319 C633.445477 609.097663 657.972943 596.229010 680.931683 580.399176 C698.401898 568.353644 716.452985 557.109687 733.485761 544.484015 C746.082990 535.146186 757.641766 524.363227 769.318707 513.841742 C778.776105 505.320197 788.124066 496.605750 796.799909 487.304663 C810.696454 472.406836 824.060529 457.009070 837.534833 441.721381 C860.804181 415.320380 880.721112 386.421424 900.072064 357.123297 C904.087933 351.043036 907.424603 344.514655 911.093305 338.203925 C911.496991 337.509589 912.026898 336.888678 912.498273 336.233710 C912.923444 337.224250 913.816632 338.292639 913.667706 339.187689 C913.423444 340.656165 912.519391 342.019934 911.864911 343.414343 C898.503583 371.878729 885.660809 400.601874 871.626569 428.730597 C857.605084 456.833686 840.918500 483.443000 822.392133 508.835303 C812.555707 522.317084 802.508038 535.649604 792.317487 548.865790 C788.059003 554.388739 783.380658 559.625495 778.547406 564.660346 C765.341840 578.416937 752.407452 592.481208 738.525006 605.529120 C719.530560 623.381720 698.963544 639.411750 676.858502 653.294867 C666.754315 659.640814 656.309796 665.519721 645.668195 670.917609 C629.857098 678.937567 613.893536 686.700141 597.702252 693.915778 C578.775433 702.350470 559.231366 709.195746 539.029340 714.002814 C526.280560 717.036383 513.583844 720.345343 500.736615 722.888556 C492.444867 724.530036 483.936200 725.143927 475.500501 725.971381 C466.960431 726.809088 458.381116 727.250128 449.845288 728.122382 C448.740796 728.235236 446.878186 729.922187 446.911755 730.822394 C447.373853 743.220038 448.113477 755.607184 448.764264 767.998053 C448.834119 769.327643 448.714764 770.667121 448.782849 771.996894 C449.434216 784.721015 449.958020 797.454108 450.817273 810.164435 C451.612714 821.930182 452.739606 833.674323 453.782330 845.422431 C455.079663 860.039435 456.381879 874.656378 457.791150 889.262824 C459.041089 902.218024 460.246411 915.182562 461.825177 928.099738 C463.601270 942.631354 465.865308 957.102729 467.744428 971.622626 C469.223401 983.050971 470.276593 994.535468 471.821332 1005.954047 C473.265149 1016.626715 475.235730 1027.227484 476.732983 1037.893744 C477.934155 1046.450873 478.654370 1055.074896 479.806775 1063.639960 C480.990888 1072.440619 482.571515 1081.188300 483.730969 1089.991889 C484.612775 1096.687201 484.976239 1103.449530 485.804578 1110.153266 C487.015088 1119.949774 488.523999 1129.709296 489.735791 1139.505683 C490.564893 1146.208441 491.050305 1152.953070 491.785596 1159.668280 C493.076032 1171.453559 494.499860 1183.224433 495.751904 1195.013617 C496.535413 1202.391303 497.040234 1209.798407 497.788587 1217.180365 C499.067944 1229.799628 500.452893 1242.408148 501.765881 1255.024237 C502.149884 1258.713935 502.515485 1262.408637 502.759473 1266.109687 C503.466229 1276.830390 504.249768 1287.549018 504.741071 1298.280463 C505.529309 1315.498114 506.229230 1332.721747 506.725110 1349.949774 C506.996777 1359.389228 507.380109 1368.890326 506.649152 1378.280707 C505.060681 1398.687689 501.788037 1418.781317 493.549329 1437.810980 C486.662091 1453.719062 477.129254 1467.637763 464.106305 1479.079169 C461.996381 1480.932807 459.283215 1482.099921 456.848859 1483.584296 C458.330731 1481.385687 459.455365 1478.800360 461.350568 1477.049018 C477.765027 1461.880927 487.336560 1443.145331 490.734113 1421.195624 C491.979779 1413.148139 493.259168 1405.054511 493.652020 1396.939643 C494.153790 1386.573798 494.411939 1376.115790 493.610913 1365.787787 C492.626233 1353.092475 490.490735 1340.483344 488.758923 1327.849921 C487.161633 1316.197943 485.736920 1304.510810 483.700086 1292.933417 C481.033521 1277.776801 477.842603 1262.712348 474.872876 1247.609198 C472.176160 1233.894232 469.568189 1220.160712 466.743176 1206.472235 C464.562848 1195.907660 462.167157 1185.386054 459.758984 1174.870307 C456.484540 1160.571479 453.164777 1146.282416 449.756879 1132.014960 C446.535901 1118.529975 442.999890 1105.118476 439.919598 1091.602362 C435.713635 1073.146674 431.951062 1054.589911 427.725476 1036.138861 C424.702161 1022.937750 420.993543 1009.892584 418.022473 996.680731 C414.686200 981.844733 411.832013 966.900153 408.774823 952.001471 C406.410626 940.480048 404.003461 928.967108 401.714337 917.430731 C399.663983 907.097602 397.683301 896.749457 395.792737 886.385932 C394.036694 876.759650 392.320477 867.122931 390.818311 857.454779 C389.909009 851.602240 389.329327 845.691229 388.795239 839.788947 C387.397900 824.347663 386.092877 808.898017 384.779370 793.449225 C384.080426 785.228461 383.176587 777.013678 382.833600 768.776679 C382.277631 755.424567 381.996442 742.057685 381.846478 728.694281 C381.805768 725.065619 379.484998 724.462470 376.988202 724.053717 C370.090497 722.924628 363.049725 722.477545 356.261670 720.911017 C342.321362 717.693915 328.150708 714.924750 314.733533 710.128607 C297.509808 703.971686 280.501691 696.857367 264.183942 688.606452 C241.777844 677.277106 220.727338 663.629157 200.977734 647.919135 C182.221951 632.999640 164.300839 617.204047 148.127271 599.595221 C138.066647 588.641730 128.925885 576.759162 120.158719 564.720893 C105.840100 545.059699 93.401341 524.167365 83.394193 501.980109 C77.004933 487.814246 71.066739 473.390052 65.927602 458.730689 C60.812135 444.138861 56.495110 429.223426 52.688043 414.231482 C49.978410 403.561164 48.556546 392.550879 46.815003 381.651587 C45.283887 372.069220 44.026803 362.440375 42.809987 352.811713 C42.262200 348.477057 41.902455 344.097205 41.808907 339.730292 C41.394189 320.370886 40.402383 300.986548 41.012757 281.655188 C41.444737 267.973822 44.145120 254.367407 45.765397 240.719504 C48.748006 215.596350 57.325192 192.151786 67.195195 169.096961 C77.209363 145.705359 90.546666 124.253470 106.179067 104.285399 C113.599179 94.807311 121.543195 85.590933 130.237607 77.290648 C146.961438 61.324912 164.938825 46.915141 185.528073 35.935359 C208.475110 23.698212 232.168958 13.951344 257.843213 8.823795 C275.080151 5.381313 292.398145 3.872487 309.702069 5.249169 C331.084180 6.950304 351.678906 12.673008 371.533856 21.149523 C396.624860 31.861384 417.468121 48.220408 435.425092 68.336768 C446.675671 80.940261 455.994855 94.994345 464.286298 109.816191 C473.624463 126.509230 480.077191 144.253638 483.473187 162.815879 C485.999036 176.621909 487.037335 190.981726 486.477765 205.004676 C485.636548 226.084540 481.485211 246.819007 473.744214 266.617468 C468.777997 279.319007 461.763837 290.875067 453.565137 301.765875 C444.599622 313.675269 432.252362 321.311621 419.917584 329.007819 C419.389508 329.337317 418.882245 329.831885 418.309338 329.933203 C416.521100 330.249457 414.706036 330.413672 412.901349 330.636817 C413.876843 329.242865 414.556378 327.411353 415.872540 326.521094 C433.735547 314.438605 444.415692 297.102698 450.859662 277.158087 C453.929334 267.657202 455.505017 257.537848 456.597516 247.571524 C457.723828 237.296942 458.008496 226.847083 457.631360 216.511511 C457.148450 203.279242 454.166242 190.494467 448.860394 178.198538 C442.837567 164.241019 435.504346 151.127341 426.306165 139.044943 C414.442822 123.461615 400.142194 110.683264 383.755963 99.849829 C369.541669 90.452323 354.331952 83.395598 337.867383 80.391509 C326.844281 78.380263 315.127850 79.510207 303.776715 80.174857 C295.446515 80.662619 287.138348 82.354254 278.937787 84.070464 C255.980573 88.874945 235.233609 98.648215 216.048779 112.113364 C203.080808 121.215140 191.004804 131.289740 180.400952 142.996497 C167.823285 156.882376 156.496182 171.709586 147.764691 188.440650 C136.937924 209.186698 129.782605 231.028861 124.471623 253.849555 C118.749318 278.437720 118.812055 303.199530 120.221333 327.820044 C121.313474 346.900122 125.736768 365.908362 129.975797 384.655341 C134.039822 402.628424 138.586926 420.674689 145.112683 437.856665 C151.439465 454.514777 159.821088 470.530768 168.652249 486.059943 C177.235211 501.152655 187.398496 515.361457 197.157559 529.762091 C200.313458 534.419013 204.388333 538.452704 208.038770 542.774970 C227.151395 565.404608 250.021008 583.662482 275.271436 598.791876 C295.846845 611.120185 318.137891 619.948187 341.073010 626.951544 C354.123090 630.936530 367.332349 634.408332 380.515302 637.941962 C382.625562 638.507636 384.527783 638.157721 384.852887 634.914984 C386.339337 620.087897 388.090161 605.287177 389.779096 590.480658 C391.085187 579.030341 392.046216 567.522223 393.874188 556.154547 C396.119489 542.191962 398.947980 528.315802 401.819013 514.463324 C404.610059 500.996588 407.114423 487.415869 410.938092 474.231299 C415.878583 457.195655 422.087354 440.530829 427.596845 423.656317 C433.740033 404.840949 441.622601 386.783911 450.770612 369.255530 C461.703687 348.306800 473.682660 328.007788 488.077741 309.213812 C499.130200 294.783911 510.069135 280.262488 521.374310 266.032630 C526.745831 259.271430 532.670575 252.918509 538.671613 246.695929 C547.558576 237.480887 556.532636 228.330710 565.836530 219.541358 C581.050031 205.169318 597.280927 191.936515 615.831586 182.141806 C633.414899 172.857810 651.577435 164.670279 669.503400 156.038428 C669.986249 155.805915 670.678876 156.009101 671.523663 155.759101 z"
  />
</svg>
